<?xml version="1.0" standalone="no"?><!DOCTYPE svg PUBLIC "-//W3C//DTD SVG 1.1//EN" "http://www.w3.org/Graphics/SVG/1.1/DTD/svg11.dtd"><svg t="1594264601305" class="icon" viewBox="0 0 1024 1024" version="1.1" xmlns="http://www.w3.org/2000/svg" p-id="10324" xmlns:xlink="http://www.w3.org/1999/xlink" width="200" height="200"><defs><style type="text/css"></style></defs><path d="M830.52 876.8H192.59c-70.67-0.08-127.94-57.35-128.02-128.02V356.63c0.08-70.67 57.35-127.94 128.02-128.02h60.69l25-48.13a62.326 62.326 0 0 1 55.51-33.73h330.17a62.326 62.326 0 0 1 55.51 33.73l25 48.13h86.07c70.66 0.1 127.91 57.36 128 128.02v392.19c-0.08 70.66-57.34 127.93-128 128.02l-0.02-0.04zM192.59 266.24c-49.83 0.06-90.2 40.43-90.26 90.26v392.32c0.06 49.83 40.43 90.2 90.26 90.26h637.93c49.83-0.06 90.2-40.43 90.26-90.26V356.63c-0.06-49.83-40.43-90.2-90.26-90.26H733c-7.06 0-13.53-3.94-16.78-10.21l-30.28-58.27a24.68 24.68 0 0 0-21.98-13.35H333.79a24.686 24.686 0 0 0-21.98 13.35l-30.28 58.27c-3.24 6.26-9.7 10.2-16.75 10.21l-72.19-0.13z" p-id="10325"></path><path d="M467.39 728.24c-114.22 0-206.82-92.6-206.82-206.82s92.6-206.82 206.82-206.82 206.82 92.6 206.82 206.82c-0.16 114.15-92.66 206.65-206.82 206.82z m0-376.11c-93.42 0-169.16 75.74-169.16 169.16s75.74 169.16 169.16 169.16 169.16-75.74 169.16-169.16c-0.11-93.38-75.78-169.05-169.16-169.16z m277.83-18.59h-67.89c-10.43 0.38-19.19-7.76-19.58-18.19-0.38-10.43 7.76-19.19 18.19-19.58 0.46-0.02 0.92-0.02 1.39 0h67.89c10.43 0.38 18.57 9.15 18.19 19.58-0.36 9.89-8.29 17.83-18.19 18.19z" p-id="10326"></path></svg>