<?xml version="1.0" standalone="no"?><!DOCTYPE svg PUBLIC "-//W3C//DTD SVG 1.1//EN" "http://www.w3.org/Graphics/SVG/1.1/DTD/svg11.dtd"><svg t="1594294667351" class="icon" viewBox="0 0 1024 1024" version="1.1" xmlns="http://www.w3.org/2000/svg" p-id="4902" xmlns:xlink="http://www.w3.org/1999/xlink" width="200" height="200"><defs><style type="text/css"></style></defs><path d="M482.304 663.552h57.856v-80.896h111.104v-57.856h-111.104V460.288h111.104l1.024-56.32h-81.92l80.384-144.896H593.92l-81.92 148.992-83.456-148.992H371.712l81.92 143.36H370.176v57.856h111.616v64.512H370.176v57.856h112.128z" p-id="4903" fill="#d4237a"></path><path d="M145.408 37.376v901.632c0 24.576 23.552 48.128 48.128 48.128h622.592c20.48 0 40.448-16.896 47.104-36.864h2.56V37.376H145.408zM505.344 921.6c-18.432 0-33.28-14.848-33.28-33.28s14.848-33.28 33.28-33.28 33.28 14.848 33.28 33.28-14.848 33.28-33.28 33.28z m290.304-117.76H215.552V111.616h580.096V803.84z" p-id="4904" fill="#d4237a"></path></svg>